<svg xmlns="http://www.w3.org/2000/svg"><path d="M395.487 277.201h-79.589c-2.674 0-1.263 73.837-1.263 80.732-.007 25.248 7.906 73.82-7.964 95.128-16.582 22.263-58.294 13.63-80.798 13.63h-85.437c-38.241 0-34.594-44.642-34.594-74.49V282.609c0-9.386-7.17-5.411-14.728-5.411H39.496c-28.7 0-42.067-33.532-21.188-57.24 18.044-20.493 36.084-40.982 54.13-61.475 38.401-43.62 75.071-93.19 116.833-132.697 24.691-27.879 48.205.373 65.598 20.05 23.7 26.8 47.394 53.607 71.087 80.407 23.288 26.34 46.576 52.674 69.86 79.014 15.098 17.076 34.39 38.716 15.14 63.83-3.925 5.121-9.444 8.114-15.47 8.114"/><path d="M54.694 210.379C69.948 193.059 212.763 30.06 213.468 30.852l89.176 100.489c17.711 19.954 35.422 39.908 53.126 59.862 10.898 12.278 31.914 29.882 24.085 49.978h38.556c-2.103-18.606-20.629-33.304-31.548-45.607-22.662-25.549-45.327-51.094-67.985-76.643a277929.066 277929.066 0 00-64.857-73.112c-11.7-13.194-23.682-31.286-41.264-31.044-16.936-.228-27.925 16.046-39.149 28.798-21.05 23.907-42.1 47.811-63.15 71.722-22.775 25.867-45.556 51.744-68.337 77.611-11.285 12.825-31.511 28.919-33.733 48.271H47.2c-3.873-10.488.861-23.237 7.494-30.798"/><path d="M34.184 277.201h70.248c3.028 0 1.41 59.395 1.41 65.308v84.969c0 37.548 30.458 39.217 54.878 39.217h92.773c23.617 0 55.732 3.891 61.395-31.428 3.932-24.519.54-52.573.534-77.32 0-26.914 0-53.832-.006-80.746h76.853c9.45 0 18.163-4.524 22.812-14.127 2.005-4.15 7.61-21.897.873-21.897H392.58c-11.652 0-9.457.204-17.809 7.13-9.359 7.765-26.89 4.724-37.83 4.724H290.06c-2.952 0-1.39 73.83-1.39 80.911 0 25.415 7.254 70.814-4.88 94.213-12.345 23.811-64.582 13.05-84.286 13.05-27.745 0-67.59 8.504-67.59-36.909V253.933c0-1.911-44.453-.906-48.995-.906-7.03 0-14.713.81-21.7-.577-5.968-1.185-11.588-4.71-14.018-11.28-3.132-1.41-9.52 0-12.811 0-4.07 0-23.117-3.144-26.001 0-2.15 18.845 8.208 36.031 25.796 36.031"/><path d="M187.338 23.58L70.498 156.296l-54.131 61.486c-10.128 11.505-14.194 27.82-8.495 43.44 7.643 20.905 26.615 19.08 43.052 19.08h49.244c5.998 0 2.936 22.96 2.936 28.815V422.55c0 38.256 24.774 47.245 53.025 47.245h101.747c25.965 0 59.484-1.507 59.484-41.674 0-31.732.004-63.46.004-95.191v-44.888c0-12.458 8.12-7.741 18.302-7.741 28.236 0 85.385 13.57 85.385-35.505 0-22.11-19.288-37.189-31.862-51.41-23.657-26.758-47.32-53.516-70.983-80.278-21.126-23.915-42.262-47.815-63.398-71.726-18.12-20.497-42.546-45.911-67.47-17.801M12.933 258.854c-9.866-27 16.697-47.373 31.126-63.764 24.906-28.282 49.814-56.579 74.72-84.865 21.23-24.114 42.463-48.222 63.694-72.337 16.251-18.454 36.099-28.75 55.476-6.829 44.027 49.802 88.053 99.604 132.083 149.406 12.604 14.249 29.12 28.355 39.582 44.77 13.412 15.172 4.658 48.87-15.342 48.87H312.21c-.675 0-.311 21.491-.311 23.147 0 38.36-.007 76.723-.007 115.082 0 30.522-9.774 51.268-39.575 51.268H173.63c-24.42 0-65.053 5.812-65.053-35.44V284.147c0-10.212 1.46-10.042-7.735-10.042-20.033 0-78.047 11.77-87.91-15.251"/></svg>
